<?xml version="1.0" encoding="utf-8"?>
<!-- Generator: Adobe Illustrator 20.1.0, SVG Export Plug-In . SVG Version: 6.00 Build 0)  -->
<svg version="1.1" baseProfile="basic" id="レイヤー_1"
	 xmlns="http://www.w3.org/2000/svg" xmlns:xlink="http://www.w3.org/1999/xlink" x="0px" y="0px" width="23px" height="19px"
	 viewBox="0 0 23 19" xml:space="preserve">
<g>
	<path fill="#ffffff" d="M7.2,18.7c-2.7,0-5.1-0.8-7.2-2.1c0.4,0,0.7,0.1,1.1,0.1c2.2,0,4.2-0.8,5.9-2c-2.1,0-3.8-1.4-4.4-3.3
		c0.3,0.1,0.6,0.1,0.9,0.1c0.4,0,0.8-0.1,1.2-0.2c-2.2-0.4-3.8-2.3-3.8-4.6c0,0,0,0,0-0.1c0.6,0.4,1.4,0.6,2.1,0.6
		C1.8,6.3,1,4.9,1,3.2c0-0.9,0.2-1.7,0.6-2.4c2.3,2.9,5.8,4.7,9.7,4.9c-0.1-0.3-0.1-0.7-0.1-1.1c0-2.6,2.1-4.7,4.7-4.7
		c1.4,0,2.6,0.6,3.4,1.5c1.1-0.2,2.1-0.6,3-1.1c-0.4,1.1-1.1,2-2.1,2.6c1-0.1,1.9-0.4,2.7-0.7c-0.6,0.9-1.4,1.8-2.4,2.4
		c0,0.2,0,0.4,0,0.6C20.7,11.5,15.9,18.7,7.2,18.7"/>
</g>
</svg>
