<?xml version="1.0" encoding="utf-8"?>
<!-- Generator: Adobe Illustrator 20.1.0, SVG Export Plug-In . SVG Version: 6.00 Build 0)  -->
<svg version="1.1" id="レイヤー_1" xmlns="http://www.w3.org/2000/svg" xmlns:xlink="http://www.w3.org/1999/xlink" x="0px"
	 y="0px" width="39px" height="33px" viewBox="0 0 39 33" enable-background="new 0 0 39 33" xml:space="preserve">
<path id="Twitter_4_" fill="#00A6FF" d="M38.1,0.7c-1.5,0.9-3.3,1.6-5.1,2c-1.5-1.6-3.5-2.6-5.8-2.6c-4.4,0-8,3.7-8,8.2
	c0,0.6,0.1,1.3,0.2,1.9C12.7,9.8,6.8,6.6,2.9,1.6C2.2,2.8,1.8,4.2,1.8,5.7c0,2.8,1.4,5.4,3.6,6.8c-1.3,0-2.5-0.4-3.6-1v0.1
	c0,4,2.8,7.3,6.4,8C7.5,19.9,6.8,20,6,20c-0.5,0-1,0-1.5-0.1c1,3.3,4,5.6,7.5,5.7C9.3,27.7,5.8,29,2.1,29c-0.6,0-1.3,0-1.9-0.1
	c3.5,2.3,7.7,3.7,12.3,3.7c14.7,0,22.8-12.5,22.8-23.3c0-0.4,0-0.7,0-1.1c1.6-1.2,2.9-2.6,4-4.2c-1.4,0.7-3,1.1-4.6,1.3
	C36.2,4.2,37.5,2.6,38.1,0.7z"/>
</svg>
