<?xml version="1.0" encoding="utf-8"?>
<!-- Generator: Adobe Illustrator 20.1.0, SVG Export Plug-In . SVG Version: 6.00 Build 0)  -->
<svg version="1.1" baseProfile="basic" id="レイヤー_1"
	 xmlns="http://www.w3.org/2000/svg" xmlns:xlink="http://www.w3.org/1999/xlink" x="0px" y="0px" width="32px" height="26px"
	 viewBox="0 0 32 26" xml:space="preserve">
<g>
	<path fill="#00a6ff" d="M9.8,25.9c-3.7,0-7.2-1.1-10.1-2.9c0.5,0.1,1,0.1,1.6,0.1c3.1,0,5.9-1,8.2-2.8c-2.9-0.1-5.3-2-6.1-4.6
		c0.4,0.1,0.8,0.1,1.2,0.1c0.6,0,1.2-0.1,1.7-0.2C3.2,15,1,12.3,1,9.1c0,0,0-0.1,0-0.1c0.9,0.5,1.9,0.8,3,0.8C2.2,8.7,1,6.7,1,4.4
		c0-1.2,0.3-2.3,0.9-3.3C5.2,5.1,10,7.7,15.5,8c-0.1-0.5-0.2-1-0.2-1.5c0-3.6,2.9-6.6,6.6-6.6c1.9,0,3.6,0.8,4.8,2.1
		c1.5-0.3,2.9-0.8,4.2-1.6c-0.5,1.5-1.5,2.8-2.9,3.6c1.3-0.2,2.6-0.5,3.8-1c-0.9,1.3-2,2.5-3.3,3.4c0,0.3,0,0.6,0,0.8
		C28.4,15.9,21.8,25.9,9.8,25.9"/>
</g>
</svg>