<?xml version="1.0" encoding="utf-8"?>
<!-- Generator: Adobe Illustrator 20.1.0, SVG Export Plug-In . SVG Version: 6.00 Build 0)  -->
<svg version="1.1" baseProfile="basic" id="レイヤー_1"
	 xmlns="http://www.w3.org/2000/svg" xmlns:xlink="http://www.w3.org/1999/xlink" x="0px" y="0px" width="107px" height="19px"
	 viewBox="0 0 107 19" xml:space="preserve">
<g>
	<path fill="#ffffff" d="M38.1,18.8c-3.9,0-7.5-1.2-9.9-3.3c-1.8-1.6-2.7-3.8-2.7-6.1c0-2.2,0.9-4.5,2.7-6.1c2.2-2,6.2-3.3,9.9-3.3
		c4.1,0,7.4,1,9.9,3.3c1.8,1.6,2.7,3.8,2.7,6.1c0,2.2-0.9,4.5-2.7,6.1C45.7,17.7,42,18.8,38.1,18.8v-2.5c2.1,0,4-0.7,5.3-2
		s1.9-2.9,1.9-4.9c0-1.9-0.7-3.7-1.9-4.9c-1.3-1.3-3.3-2-5.3-2s-4,0.7-5.3,2s-1.9,3-1.9,4.9s0.7,3.7,1.9,4.9c1.3,1.3,3.3,2,5.3,2
		V18.8z"/>
	<path fill="#ffffff" d="M9.8,0C7.7,0,5.4,0.4,3.4,1.3C1.5,2.1,0,3.4,0,5.7c0,2,1.3,3.2,1.2,3.1c0.5,0.5,1.4,1.3,3.7,1.8c1,0.2,3.2,0.6,5.3,0.8
		s4.2,0.4,5.1,0.7c0.7,0.2,1.8,0.4,1.8,1.7s-1.2,1.7-1.4,1.8s-1.7,0.7-4.3,0.7c-1.9,0-4.2-0.6-5.1-0.9c-1-0.3-2-0.8-2.9-2
		c-0.2-0.3-0.6-1.1-0.6-1.9H0.5v6.6h2.6c0,0,0-0.7,0-0.9c0-0.1,0.1-0.5,0.6-0.3s2.1,0.9,3.8,1.2c1.4,0.3,2.3,0.5,4,0.5
		c2.8,0,4.3-0.5,5.3-0.7c1-0.3,2.2-0.8,3.2-1.6c0.5-0.4,1.7-1.5,1.7-3.5c0-1.9-1-3.1-1.4-3.4c-0.5-0.5-1.1-0.9-1.7-1.2
		c-0.5-0.3-1.4-0.6-2.1-0.7c-1.3-0.3-4.4-0.7-5.9-0.9C9.1,6.5,6.5,6.3,5.4,6c-0.3-0.1-1-0.4-1-1.2c0-0.5,0.3-1,0.9-1.4
		c0.9-0.6,2.8-1,4.8-1c2.3,0,4.3,0.5,5.6,1.1C16.1,3.7,16.6,4,17,4.3c0.4,0.4,1.1,1.1,1.3,2.2h2.1V0.8H18v0.7c0,0.2-0.2,0.5-0.6,0.3
		C16.4,1.2,13.4,0,9.8,0z"/>
	<path fill="#ffffff" d="M61.5,1.1L73,11.4l-0.1-7c0-0.9-0.2-1.3-1.2-1.3c-1.3,0-2.2,0-2.2,0v-2h9.8v2.1c0,0-0.8,0-2.1,0c-1,0-1.1,0.3-1.1,1.3
		l0.2,13.4H73L59.7,6v8.4c0,0.9,0.1,1.3,1,1.3c1.3,0,2.4,0,2.4,0v2.1h-9.7v-2.1c0,0,0.9,0,2.3,0c0.8,0,0.8-0.8,0.8-1.4V4.5
		c0-0.6-0.1-1.4-1.4-1.4h-1.8v-2H61.5z"/>
	<path fill="#ffffff" d="M90.6,15.7c0.1,0,0.5,0,0.6,0c0.2-0.1,0.4-0.2,0.5-0.4c0-0.1,0-0.4,0-0.5c0,0,0-3.2,0-3.3s0-0.1-0.1-0.3s-6-6.9-6.3-7.1
		c-0.3-0.4-0.9-0.9-1.8-0.9c-0.7,0-2,0-2,0V1.1H93v2.1c0,0-1.1,0-1.4,0s-0.5,0.3-0.3,0.6c0,0,3.9,4.6,3.9,4.7c0,0,0.1,0.1,0.1,0
		l4-4.7c0.2-0.2,0.1-0.6-0.3-0.6c-0.3,0-1.4,0-1.4,0V1.1h9.5v2.1c0,0-1.4,0-2.1,0c-0.8,0-1.1,0.1-1.7,0.8c-0.3,0.2-6.3,7-6.4,7.2
		c-0.1,0.1-0.1,0.2-0.1,0.3s0,3,0,3.3c0,0.1,0,0.4,0,0.5c0.1,0.2,0.2,0.3,0.5,0.4c0.1,0,0.5,0,0.6,0c0.4,0,2.2,0,2.2,0v2.1H88.6
		v-2.1L90.6,15.7z"/>
</g>
</svg>
